<mxfile host="app.diagrams.net" modified="2023-09-27T07:51:21.982Z" agent="Mozilla/5.0 (X11; Linux x86_64) AppleWebKit/537.36 (KHTML, like Gecko) Chrome/117.0.0.0 Safari/537.36" etag="hhoQfmPx2cY5ZJckZ85Z" version="21.8.2" type="device">
  <diagram name="Page-1" id="2XN_xrOKE73OJIe28WxP">
    <mxGraphModel dx="806" dy="467" grid="1" gridSize="10" guides="1" tooltips="1" connect="1" arrows="1" fold="1" page="1" pageScale="1" pageWidth="850" pageHeight="1100" background="none" math="0" shadow="0">
      <root>
        <mxCell id="0" />
        <mxCell id="1" parent="0" />
        <mxCell id="vI2nZ5jHoJQtBZDCCQpB-18" value="" style="rounded=0;orthogonalLoop=1;jettySize=auto;html=1;" edge="1" parent="1">
          <mxGeometry relative="1" as="geometry">
            <mxPoint x="145" y="144.17647058823525" as="sourcePoint" />
            <mxPoint x="215" y="103" as="targetPoint" />
          </mxGeometry>
        </mxCell>
        <mxCell id="vI2nZ5jHoJQtBZDCCQpB-22" style="rounded=0;orthogonalLoop=1;jettySize=auto;html=1;entryX=-0.007;entryY=0.386;entryDx=0;entryDy=0;entryPerimeter=0;" edge="1" parent="1" source="vI2nZ5jHoJQtBZDCCQpB-3" target="vI2nZ5jHoJQtBZDCCQpB-38">
          <mxGeometry relative="1" as="geometry">
            <mxPoint x="200" y="170" as="targetPoint" />
          </mxGeometry>
        </mxCell>
        <mxCell id="vI2nZ5jHoJQtBZDCCQpB-37" style="rounded=0;orthogonalLoop=1;jettySize=auto;html=1;entryX=0;entryY=0;entryDx=0;entryDy=0;" edge="1" parent="1">
          <mxGeometry relative="1" as="geometry">
            <mxPoint x="140" y="174" as="sourcePoint" />
            <mxPoint x="200" y="254" as="targetPoint" />
          </mxGeometry>
        </mxCell>
        <mxCell id="vI2nZ5jHoJQtBZDCCQpB-3" value="Usuario&lt;br&gt;" style="shape=umlActor;verticalLabelPosition=bottom;verticalAlign=top;html=1;outlineConnect=0;" vertex="1" parent="1">
          <mxGeometry x="110" y="130" width="30" height="60" as="geometry" />
        </mxCell>
        <mxCell id="vI2nZ5jHoJQtBZDCCQpB-16" value="&lt;b&gt;Solicitar_Amigo&lt;/b&gt;" style="ellipse;whiteSpace=wrap;html=1;" vertex="1" parent="1">
          <mxGeometry x="220" y="66" width="140" height="70" as="geometry" />
        </mxCell>
        <mxCell id="vI2nZ5jHoJQtBZDCCQpB-35" style="rounded=0;orthogonalLoop=1;jettySize=auto;html=1;entryX=1;entryY=0;entryDx=0;entryDy=0;" edge="1" parent="1" source="vI2nZ5jHoJQtBZDCCQpB-30" target="vI2nZ5jHoJQtBZDCCQpB-33">
          <mxGeometry relative="1" as="geometry" />
        </mxCell>
        <mxCell id="vI2nZ5jHoJQtBZDCCQpB-30" value="&lt;b&gt;Ver_Perfil_Amigo&lt;/b&gt;" style="ellipse;whiteSpace=wrap;html=1;" vertex="1" parent="1">
          <mxGeometry x="500" y="220" width="140" height="70" as="geometry" />
        </mxCell>
        <mxCell id="vI2nZ5jHoJQtBZDCCQpB-32" value="Ver_Lista_Amigos" style="swimlane;fontStyle=1;align=center;verticalAlign=middle;childLayout=stackLayout;horizontal=1;startSize=30;horizontalStack=0;resizeParent=0;resizeLast=1;container=0;collapsible=0;rounded=1;arcSize=30;swimlaneFillColor=#FFFCFC;dropTarget=0;" vertex="1" parent="1">
          <mxGeometry x="201" y="230" width="160" height="60" as="geometry" />
        </mxCell>
        <mxCell id="vI2nZ5jHoJQtBZDCCQpB-33" value="si pincha en un perfil" style="text;html=1;strokeColor=none;fillColor=none;align=center;verticalAlign=middle;spacingLeft=4;spacingRight=4;whiteSpace=wrap;overflow=hidden;rotatable=0;fontColor=#000000;" vertex="1" parent="vI2nZ5jHoJQtBZDCCQpB-32">
          <mxGeometry y="30" width="160" height="30" as="geometry" />
        </mxCell>
        <mxCell id="vI2nZ5jHoJQtBZDCCQpB-34" value="si quiere" style="text;html=1;strokeColor=none;fillColor=none;align=center;verticalAlign=middle;spacingLeft=4;spacingRight=4;whiteSpace=wrap;overflow=hidden;rotatable=0;fontColor=#000000;" vertex="1" parent="vI2nZ5jHoJQtBZDCCQpB-32">
          <mxGeometry y="60" width="160" as="geometry" />
        </mxCell>
        <mxCell id="vI2nZ5jHoJQtBZDCCQpB-36" value="&amp;lt;&amp;lt;extends&amp;gt;&amp;gt;" style="edgeLabel;html=1;align=center;verticalAlign=middle;resizable=0;points=[];" vertex="1" connectable="0" parent="1">
          <mxGeometry x="439.99621955564743" y="250.00043668139278" as="geometry">
            <mxPoint x="-6" y="-4" as="offset" />
          </mxGeometry>
        </mxCell>
        <mxCell id="vI2nZ5jHoJQtBZDCCQpB-38" value="&lt;b&gt;Gestionar_Solicitudes&lt;/b&gt;" style="ellipse;whiteSpace=wrap;html=1;" vertex="1" parent="1">
          <mxGeometry x="210" y="150" width="150" height="70" as="geometry" />
        </mxCell>
      </root>
    </mxGraphModel>
  </diagram>
</mxfile>
